<mxfile host="app.diagrams.net" modified="2024-07-26T17:50:03.036Z" agent="Mozilla/5.0 (Windows NT 10.0; Win64; x64) AppleWebKit/537.36 (KHTML, like Gecko) Chrome/126.0.0.0 Safari/537.36 Edg/126.0.0.0" etag="5SHbV_rYC7VP8TDEzTvu" version="24.6.4" type="github">
  <diagram id="6a731a19-8d31-9384-78a2-239565b7b9f0" name="Page-1">
    <mxGraphModel dx="1666" dy="785" grid="1" gridSize="10" guides="1" tooltips="1" connect="1" arrows="1" fold="1" page="1" pageScale="1" pageWidth="1169" pageHeight="827" background="none" math="0" shadow="0">
      <root>
        <mxCell id="0" />
        <mxCell id="1" parent="0" />
        <mxCell id="nUT8vBGqXmPaFjFOQLK6-1544" value="CanOpen" style="ellipse;whiteSpace=wrap;html=1;" vertex="1" parent="1">
          <mxGeometry x="550" y="280" width="120" height="80" as="geometry" />
        </mxCell>
        <mxCell id="nUT8vBGqXmPaFjFOQLK6-1545" value="SDO" style="rounded=1;whiteSpace=wrap;html=1;" vertex="1" parent="1">
          <mxGeometry x="240" y="450" width="120" height="60" as="geometry" />
        </mxCell>
        <mxCell id="nUT8vBGqXmPaFjFOQLK6-1546" value="PDO" style="rounded=1;whiteSpace=wrap;html=1;" vertex="1" parent="1">
          <mxGeometry x="710" y="450" width="120" height="60" as="geometry" />
        </mxCell>
        <mxCell id="nUT8vBGqXmPaFjFOQLK6-1547" value="&lt;ul&gt;&lt;li&gt;Real-time data exchange&lt;/li&gt;&lt;li&gt;Unconfirmed transmission for fast&lt;/li&gt;&lt;li&gt;Senso readings/actuator commands&lt;/li&gt;&lt;/ul&gt;" style="text;strokeColor=none;fillColor=none;html=1;whiteSpace=wrap;verticalAlign=middle;overflow=hidden;" vertex="1" parent="1">
          <mxGeometry x="820" y="440" width="260" height="80" as="geometry" />
        </mxCell>
        <mxCell id="nUT8vBGqXmPaFjFOQLK6-1548" value="&lt;ul&gt;&lt;li&gt;&lt;span style=&quot;background-color: initial;&quot;&gt;Configuration &amp;amp; accessing the object dictionary&lt;/span&gt;&lt;/li&gt;&lt;li&gt;Confirmed and reliable&lt;/li&gt;&lt;li&gt;Non real-time data&lt;/li&gt;&lt;/ul&gt;" style="text;strokeColor=none;fillColor=none;html=1;whiteSpace=wrap;verticalAlign=middle;overflow=hidden;" vertex="1" parent="1">
          <mxGeometry x="350" y="440" width="220" height="80" as="geometry" />
        </mxCell>
      </root>
    </mxGraphModel>
  </diagram>
</mxfile>
